<?xml version="1.0" standalone="no"?>
<!DOCTYPE svg PUBLIC "-//W3C//DTD SVG 20010904//EN"
 "http://www.w3.org/TR/2001/REC-SVG-20010904/DTD/svg10.dtd">
<svg version="1.0" xmlns="http://www.w3.org/2000/svg"
 width="505.000000pt" height="482.000000pt" viewBox="0 0 505.000000 482.000000"
 preserveAspectRatio="xMidYMid meet">

<g transform="translate(0.000000,482.000000) scale(0.100000,-0.100000)"
fill="#000000" stroke="none">
<path d="M2470 4754 c-417 -82 -574 -124 -687 -184 -65 -34 -85 -40 -137 -40
-114 0 -378 75 -579 165 l-58 25 -29 -20 c-16 -11 -41 -46 -56 -77 -36 -73
-38 -173 -4 -283 24 -81 101 -241 158 -330 19 -30 35 -59 35 -65 0 -5 -29 -48
-64 -95 -181 -239 -324 -536 -374 -775 -23 -110 -30 -284 -16 -386 26 -178
134 -430 254 -592 138 -186 281 -301 667 -537 341 -208 478 -309 648 -474 110
-108 177 -185 264 -307 l55 -76 74 101 c215 295 420 468 892 756 292 177 423
273 547 399 153 155 256 327 330 550 102 306 60 627 -132 1004 -53 103 -178
298 -245 381 l-40 50 42 65 c181 281 231 539 129 661 -44 51 -55 53 -129 20
-107 -48 -343 -126 -439 -145 -120 -23 -199 -18 -251 18 -115 79 -728 216
-855 191z m350 -109 c124 -20 239 -41 257 -46 37 -12 90 -68 99 -106 10 -36
-12 -49 -95 -56 -37 -3 -128 -16 -201 -28 l-133 -22 -56 58 -55 58 52 46 c29
25 52 49 52 54 0 4 -19 7 -42 7 -38 0 -48 -6 -98 -55 l-56 -55 -54 55 c-49 50
-58 55 -97 55 -24 0 -43 -3 -43 -7 0 -3 24 -28 53 -54 l52 -48 -56 -56 -56
-56 -164 25 c-91 14 -181 26 -200 26 -71 0 -81 58 -20 119 44 44 27 40 311 85
118 19 226 37 240 39 32 5 41 4 310 -38z m1240 -156 c15 -61 8 -175 -15 -239
-23 -66 -73 -124 -145 -168 -61 -37 -110 -59 -110 -49 0 3 7 21 16 42 19 46
18 48 -86 106 -90 50 -136 83 -150 108 -9 17 2 23 112 60 175 60 280 113 320
160 18 22 36 37 39 35 4 -2 13 -27 19 -55z m-2972 21 c28 -37 188 -116 327
-161 55 -18 104 -36 109 -40 16 -15 -39 -63 -144 -125 -104 -61 -111 -70 -88
-119 6 -14 8 -28 5 -31 -8 -9 -136 62 -170 94 -88 82 -131 272 -87 386 12 33
21 33 48 -4z m1643 -177 l114 -118 37 -195 c68 -357 144 -828 163 -1009 l6
-63 -63 35 c-35 20 -142 80 -238 134 l-175 99 -3 328 c-2 324 -2 329 19 344
11 8 34 32 50 55 23 32 29 50 29 94 0 58 4 61 39 37 16 -12 22 -23 18 -40 -5
-29 3 -30 37 -3 25 19 27 26 24 82 l-3 61 -87 60 c-74 50 -95 60 -140 63 -47
4 -60 0 -117 -34 -35 -21 -81 -53 -102 -71 -36 -31 -39 -37 -39 -87 0 -48 3
-56 29 -74 36 -26 44 -26 36 -2 -6 19 24 61 44 61 4 0 11 -26 15 -57 7 -62 35
-115 72 -140 l24 -15 0 -332 0 -331 -233 -131 -232 -130 -3 38 c-5 61 53 449
133 891 65 356 49 317 181 451 l115 116 68 0 68 0 114 -117z m-558 2 c68 -34
68 -35 -48 -91 -128 -62 -165 -57 -214 28 -42 73 -41 86 12 91 104 11 190 1
250 -28z m1044 21 c3 -2 -7 -29 -22 -60 -29 -62 -65 -96 -102 -96 -27 0 -116
36 -187 76 -55 31 -56 29 44 72 50 21 65 22 159 17 57 -3 106 -7 108 -9z
m-419 -1319 c116 -66 212 -124 212 -129 0 -23 -195 -124 -369 -193 l-94 -36
-106 41 c-167 67 -377 178 -361 193 3 3 108 63 235 135 193 110 233 129 250
120 11 -6 116 -65 233 -131z"/>
<path d="M441 2425 c-199 -188 -325 -433 -338 -656 -21 -354 137 -533 757
-862 153 -80 345 -170 815 -379 563 -251 800 -377 850 -453 l19 -30 39 43 c85
91 255 182 802 425 606 270 801 363 1015 485 259 147 449 300 519 416 45 76
71 186 71 309 0 237 -100 454 -309 670 -52 53 -97 97 -100 97 -3 0 -14 -26
-23 -58 -50 -168 -284 -470 -550 -709 -225 -201 -417 -338 -669 -475 -187
-101 -242 -138 -340 -221 -223 -190 -381 -479 -435 -795 l-18 -104 -18 109
c-48 285 -174 531 -372 728 -116 116 -199 175 -381 272 -175 94 -276 157 -430
273 -390 292 -728 678 -814 931 l-17 52 -73 -68z"/>
</g>
</svg>
